<svg width="621" height="45" fill="none" xmlns="http://www.w3.org/2000/svg"><path d="M9.897 32H8.103V12.133H.779V10.59h16.456v1.544H9.896V32zm12.782 0H20.87V10.59h1.809v9.602h12.235v-9.603h1.808V32h-1.808V21.736H22.679V32zm32.972 0H42.343V10.59h13.235v1.543H44.152v8.059h10v1.544h-10v8.735h11.5V32zm25.565-6.03c0 1.952-.632 3.447-1.897 4.486C78.064 31.486 76.417 32 74.38 32h-7.236V10.59h6.324c2.166 0 3.872.445 5.117 1.337 1.245.893 1.867 2.31 1.867 4.25 0 1.098-.298 2.059-.896 2.882-.599.824-1.427 1.417-2.486 1.78 1.265.265 2.27.877 3.015 1.838.755.95 1.132 2.049 1.132 3.294zm-7.75-13.837h-4.514v8.044h4.691c1.588 0 2.814-.338 3.676-1.015.873-.686 1.31-1.696 1.31-3.029 0-2.666-1.721-4-5.162-4zM79.408 26c0-1.215-.397-2.235-1.19-3.058-.795-.834-2.03-1.25-3.706-1.25h-5.559v8.779h5.426c1.569 0 2.8-.397 3.691-1.192.892-.803 1.338-1.896 1.338-3.279zm13.268-15.41c2.225 0 3.99.538 5.294 1.617 1.314 1.078 1.97 2.637 1.97 4.676 0 1.422-.411 2.652-1.235 3.691-.813 1.03-1.877 1.735-3.19 2.118l5.352 9.117V32h-1.941l-5.162-8.926h-6.235V32H85.72V10.59h6.956zm0 1.543h-5.147v9.412h5.544c1.118 0 2.049-.216 2.794-.647.755-.442 1.319-1.015 1.691-1.72.382-.717.574-1.481.574-2.295 0-1.46-.47-2.617-1.412-3.47-.931-.853-2.28-1.28-4.044-1.28zm18.532 17.205l.132.47.118-.47 6.75-18.749h1.97L112.207 32h-1.735l-7.956-21.41h1.971l6.72 18.748zM130.68 32h-1.794V12.133h-7.323V10.59h16.455v1.544h-7.338V32zm9.15 0h-1.882l8.088-21.41h1.721L155.859 32h-1.882l-2.206-6h-9.735l-2.206 6zm2.78-7.544h8.588l-4.294-11.661-4.294 11.661zM171.568 32h-12.382V10.59h1.809v19.88h10.573V32zm5.856 0h-1.809V10.59h1.809V32zm18.091-5.265c0-.793-.181-1.47-.544-2.029-.353-.559-.956-1.054-1.809-1.485-.853-.441-2.019-.872-3.5-1.294-1.431-.402-2.671-.858-3.72-1.368-1.049-.52-1.858-1.156-2.426-1.911-.569-.755-.853-1.696-.853-2.824 0-1.098.304-2.063.911-2.897.618-.833 1.466-1.48 2.544-1.94 1.079-.462 2.324-.692 3.735-.692 1.5 0 2.799.284 3.897.853 1.098.569 1.946 1.338 2.544 2.309.598.97.897 2.049.897 3.235h-1.808c0-1.392-.486-2.549-1.456-3.47-.961-.922-2.319-1.383-4.074-1.383-1.764 0-3.102.387-4.014 1.162-.902.774-1.353 1.7-1.353 2.78 0 1.028.417 1.901 1.25 2.617.833.715 2.328 1.362 4.485 1.94 2.274.618 4.029 1.403 5.265 2.354 1.235.94 1.852 2.279 1.852 4.014 0 1.157-.318 2.157-.955 3-.638.833-1.51 1.475-2.618 1.926-1.108.442-2.372.662-3.794.662-.951 0-1.902-.122-2.853-.367a8.567 8.567 0 01-2.573-1.133 5.982 5.982 0 01-1.868-2c-.46-.813-.691-1.784-.691-2.911h1.809c0 1.206.309 2.166.926 2.882.628.706 1.417 1.215 2.368 1.53a9.15 9.15 0 002.882.47c1.686 0 3.029-.368 4.029-1.103 1.01-.745 1.515-1.72 1.515-2.927zM208.577 32h-1.794V12.133h-7.324V10.59h16.456v1.544h-7.338V32zm24.256-12.352l6.014-9.059h2.162l-7.088 10.544L241.229 32h-2.161l-6.235-9.352L226.568 32h-2.147l7.309-10.867-7.088-10.544h2.161l6.03 9.059zM254.221 32h-1.809V10.59h13.264v1.543h-11.455v8.309h9.97V22h-9.97v10zm30.017-21.41v14.499c0 1.607-.338 2.946-1.015 4.014a6.418 6.418 0 01-2.735 2.397c-1.137.53-2.397.794-3.779.794-1.432 0-2.716-.265-3.853-.794a6.368 6.368 0 01-2.691-2.397c-.657-1.069-.985-2.407-.985-4.014v-14.5h1.794v14.5c0 1.872.539 3.289 1.617 4.25 1.079.95 2.451 1.426 4.118 1.426 1.666 0 3.034-.476 4.103-1.427 1.078-.96 1.617-2.377 1.617-4.25V10.59h1.809zM302.785 32h-13.309V10.59h13.235v1.543h-11.426v8.059h10v1.544h-10v8.735h11.5V32zm19.929 0h-1.824l-12.308-18.323V32h-1.809V10.59h1.809l12.338 18.322V10.589h1.794V32zm7.429 0h-1.808V10.59h13.264v1.543h-11.456v8.309h9.97V22h-9.97v10zm37.932-6.676c-.225 2.176-1.005 3.882-2.338 5.117-1.333 1.236-3.181 1.853-5.544 1.853-1.617 0-3.029-.402-4.235-1.206-1.206-.804-2.142-1.931-2.809-3.382-.666-1.45-1-3.137-1-5.058v-2.692c0-1.93.334-3.617 1-5.058.667-1.451 1.613-2.578 2.838-3.382 1.226-.814 2.672-1.22 4.338-1.22 2.285 0 4.093.617 5.427 1.852 1.333 1.225 2.107 2.936 2.323 5.132h-1.809c-.215-1.735-.799-3.073-1.75-4.014-.951-.951-2.348-1.427-4.191-1.427-1.323 0-2.46.338-3.411 1.015-.951.667-1.681 1.608-2.191 2.823-.51 1.216-.765 2.633-.765 4.25v2.72c0 1.57.245 2.966.735 4.192.491 1.215 1.196 2.176 2.118 2.882.931.696 2.059 1.044 3.382 1.044 1.902 0 3.328-.456 4.279-1.368.961-.912 1.559-2.27 1.794-4.073h1.809zm20.37-2.882c0 2-.343 3.74-1.029 5.22-.677 1.47-1.637 2.613-2.882 3.426-1.245.804-2.716 1.206-4.412 1.206-1.657 0-3.112-.402-4.367-1.206-1.255-.813-2.235-1.956-2.941-3.426-.696-1.48-1.044-3.22-1.044-5.22v-2.294c0-2 .348-3.735 1.044-5.206.696-1.48 1.666-2.622 2.911-3.426 1.255-.814 2.711-1.22 4.368-1.22 1.696 0 3.166.406 4.411 1.22 1.255.804 2.226 1.946 2.912 3.426.686 1.47 1.029 3.206 1.029 5.206v2.294zm-1.794-2.324c0-2.53-.578-4.534-1.735-6.014-1.147-1.48-2.755-2.22-4.823-2.22-2.02 0-3.613.74-4.779 2.22-1.157 1.48-1.736 3.485-1.736 6.014v2.324c0 2.549.584 4.568 1.75 6.058 1.177 1.48 2.775 2.22 4.794 2.22 2.078 0 3.686-.74 4.823-2.22 1.138-1.49 1.706-3.51 1.706-6.058v-2.324zM405.58 32h-12.381V10.59h1.808v19.88h10.573V32zm16.033 0h-12.382V10.59h1.809v19.88h10.573V32zm3.562 0h-1.883l8.088-21.41h1.721L441.203 32h-1.882l-2.206-6h-9.734l-2.206 6zm2.779-7.544h8.588l-4.294-11.661-4.294 11.661zm30.649 1.515c0 1.95-.632 3.446-1.897 4.485-1.255 1.03-2.902 1.544-4.941 1.544h-7.235V10.59h6.324c2.166 0 3.872.445 5.117 1.337 1.245.893 1.868 2.31 1.868 4.25 0 1.098-.3 2.059-.898 2.882-.598.824-1.426 1.417-2.485 1.78 1.265.265 2.27.877 3.015 1.838.755.95 1.132 2.049 1.132 3.294zm-7.749-13.838h-4.515v8.044h4.691c1.588 0 2.814-.338 3.676-1.015.873-.686 1.309-1.696 1.309-3.029 0-2.666-1.72-4-5.161-4zM456.794 26c0-1.215-.397-2.235-1.191-3.058-.794-.834-2.029-1.25-3.705-1.25h-5.559v8.779h5.426c1.569 0 2.799-.397 3.691-1.192.892-.803 1.338-1.896 1.338-3.279zm22.165-3.558c0 2-.343 3.74-1.03 5.22-.676 1.47-1.637 2.613-2.882 3.426-1.245.804-2.715 1.206-4.411 1.206-1.657 0-3.113-.402-4.368-1.206-1.255-.813-2.235-1.956-2.941-3.426-.696-1.48-1.044-3.22-1.044-5.22v-2.294c0-2 .348-3.735 1.044-5.206.696-1.48 1.667-2.622 2.912-3.426 1.255-.814 2.71-1.22 4.367-1.22 1.696 0 3.167.406 4.412 1.22 1.255.804 2.225 1.946 2.911 3.426.687 1.47 1.03 3.206 1.03 5.206v2.294zm-1.794-2.324c0-2.53-.579-4.534-1.736-6.014-1.147-1.48-2.754-2.22-4.823-2.22-2.019 0-3.612.74-4.779 2.22-1.157 1.48-1.735 3.485-1.735 6.014v2.324c0 2.549.583 4.568 1.75 6.058 1.176 1.48 2.774 2.22 4.794 2.22 2.078 0 3.686-.74 4.823-2.22 1.137-1.49 1.706-3.51 1.706-6.058v-2.324zm13.458-9.529c2.226 0 3.99.54 5.294 1.618 1.314 1.078 1.971 2.637 1.971 4.676 0 1.422-.412 2.652-1.235 3.691-.814 1.03-1.878 1.735-3.191 2.118l5.352 9.117V32h-1.941l-5.161-8.926h-6.235V32h-1.809V10.59h6.955zm0 1.544h-5.146v9.412h5.543c1.118 0 2.049-.216 2.794-.647.755-.442 1.319-1.015 1.692-1.72a4.8 4.8 0 00.573-2.295c0-1.46-.471-2.617-1.412-3.47-.931-.853-2.279-1.28-4.044-1.28zM502.626 32h-1.882l8.088-21.41h1.72L518.655 32h-1.882l-2.206-6h-9.735l-2.206 6zm2.78-7.544h8.588L509.7 12.795l-4.294 11.661zM527.305 32h-1.794V12.133h-7.323V10.59h16.455v1.544h-7.338V32zm13.18 0h-1.809V10.59h1.809V32zm21.782-9.558c0 2-.344 3.74-1.03 5.22-.676 1.47-1.637 2.613-2.882 3.426-1.245.804-2.716 1.206-4.412 1.206-1.656 0-3.112-.402-4.367-1.206-1.255-.813-2.235-1.956-2.941-3.426-.696-1.48-1.044-3.22-1.044-5.22v-2.294c0-2 .348-3.735 1.044-5.206.696-1.48 1.666-2.622 2.912-3.426 1.254-.814 2.71-1.22 4.367-1.22 1.696 0 3.166.406 4.412 1.22 1.254.804 2.225 1.946 2.911 3.426.686 1.47 1.03 3.206 1.03 5.206v2.294zm-1.795-2.324c0-2.53-.578-4.534-1.735-6.014-1.147-1.48-2.755-2.22-4.823-2.22-2.02 0-3.613.74-4.779 2.22-1.157 1.48-1.735 3.485-1.735 6.014v2.324c0 2.549.583 4.568 1.749 6.058 1.177 1.48 2.775 2.22 4.794 2.22 2.079 0 3.686-.74 4.824-2.22 1.137-1.49 1.705-3.51 1.705-6.058v-2.324zM582.96 32h-1.823l-12.308-18.323V32h-1.809V10.59h1.809l12.337 18.322V10.589h1.794V32z" fill="#0D080A"/></svg>