<svg width="14" height="14" viewBox="0 0 14 14" xmlns="http://www.w3.org/2000/svg" fill="none"><path d="M12.877 9.189c-.857 0-1.699-.134-2.496-.398-.391-.133-.871-.011-1.11.234l-1.574 1.188c-1.826-.975-2.95-2.099-3.911-3.911l1.153-1.533c.3-.299.407-.736.278-1.147-.265-.802-.399-1.643-.399-2.5 0-.619-.504-1.123-1.123-1.123h-2.571c-.619 0-1.123.504-1.123 1.123 0 7.1 5.776 12.877 12.877 12.877.62 0 1.123-.504 1.123-1.123v-2.564c0-.619-.504-1.123-1.123-1.123z" fill="#87A731" clip-path="url(#a)"/><defs><clipPath id="a"><path fill="#fff" d="M0 0h14v14h-14z"/></clipPath></defs></svg>