<svg width="15" height="16" viewBox="0 0 15 16" fill="none" xmlns="http://www.w3.org/2000/svg">
<g clip-path="url(#clip0)">
<path d="M13.7287 1.74282C12.0846 0.134247 9.45644 0.134597 7.81284 1.74362L0.91948 8.63701C-0.326978 9.91285 -0.303157 11.9576 0.972688 13.204C2.22754 14.43 4.23163 14.43 5.48649 13.204L11.7285 6.96196C12.54 6.15049 12.54 4.83479 11.7285 4.02332C10.9171 3.21184 9.60137 3.21184 8.78989 4.02332L2.81922 9.99395C2.61097 10.2096 2.61695 10.5532 2.83258 10.7614C3.04293 10.9646 3.37639 10.9646 3.58674 10.7614L9.55738 4.79081C9.95331 4.41151 10.5818 4.42503 10.961 4.82096C11.3288 5.20493 11.3288 5.8105 10.961 6.19447L4.71899 12.4365C3.87575 13.2677 2.51826 13.258 1.687 12.4148C0.864141 11.58 0.864141 10.2392 1.687 9.4045L8.58037 2.51111C9.80825 1.28278 11.7994 1.28243 13.0277 2.51028C14.256 3.73813 14.2564 5.72928 13.0285 6.9576L6.13513 13.851C5.90744 14.046 5.88092 14.3886 6.07591 14.6163C6.2709 14.844 6.61355 14.8705 6.84124 14.6755C6.86248 14.6573 6.88226 14.6376 6.90045 14.6163L13.7938 7.72293C15.4272 6.05358 15.398 3.37617 13.7287 1.74282Z" fill="#616161"/>
</g>
<defs>
<clipPath id="clip0">
<rect width="15" height="15" fill="white" transform="translate(0 0.171387)"/>
</clipPath>
</defs>
</svg>
