<svg width="14" height="14" viewBox="0 0 14 14" xmlns="http://www.w3.org/2000/svg" fill="none"><g clip-path="url(#a)" fill="#87A731"><path d="M12.769 1.668h-11.539c-.189 0-.367.047-.527.123l6.269 6.269 1.405-1.35 4.919-4.919c-.16-.077-.338-.123-.527-.123zM13.877 2.371l-4.629 4.629 4.629 4.629c.077-.16.123-.338.123-.527v-8.203c0-.189-.046-.367-.123-.527zM.123 2.371c-.077.16-.123.338-.123.527v8.203c0 .189.047.367.123.527l4.629-4.629-4.629-4.629zM8.668 7.58l-1.405 1.351c-.08.08-.185.12-.29.12-.105 0-.21-.04-.29-.12l-1.351-1.351-4.629 4.629c.16.077.338.123.527.123h11.539c.189 0 .367-.046.527-.123l-4.629-4.629z"/></g><defs><clipPath id="a"><path fill="#fff" d="M0 0h14v14h-14z"/></clipPath></defs></svg>