<svg fill="none" xmlns="http://www.w3.org/2000/svg">
  <symbol id="bg" preserveAspectRatio="none" viewBox="0 0 1000 1000">
    <path fill="#E7E9E4" d="M0 0h1000v1000H0z" />
  </symbol>
  <symbol id="logo" viewBox="0 0 1000 1000">
    <path d="M273 523.238v-37.706h21.606v3.995H278.33v33.641H273v.07zM316.354 485.532l11.941 37.706h-5.686l-3.127-10.302h-13.86l-3.269 10.302h-5.544l12.509-37.706h7.036zm-3.909 4.836c-.142.63-.355 1.331-.639 2.172l-5.046 16.541h11.727l-4.762-16.471c-.214-.841-.427-1.541-.498-2.102-.071-.561-.213-1.192-.426-2.033h-.071c-.071.701-.142 1.332-.285 1.893zM337.747 515.248c.213.982.64 1.823 1.208 2.594.569.771 1.351 1.331 2.346 1.752.995.42 2.203.631 3.696.631 2.558 0 4.477-.631 5.899-1.823 1.35-1.261 2.061-3.084 2.061-5.466 0-2.804-.711-4.836-2.203-5.958-1.493-1.121-3.767-1.752-6.895-1.752h-1.421c-.355.07-.64.07-.995.07v-3.714c.213.07.497.07.64.07.213.07.426.07.568.07h.498c1.35 0 2.558-.07 3.553-.351 1.066-.21 1.919-.56 2.701-1.121.711-.561 1.279-1.262 1.635-2.103.355-.911.568-2.032.568-3.364 0-1.962-.497-3.434-1.563-4.485-1.066-1.052-2.701-1.612-5.046-1.612-1.351 0-2.417.14-3.341.49-.853.351-1.563.771-2.061 1.332-.497.561-.924 1.261-1.066 2.102-.213.841-.284 1.753-.284 2.734h-5.26v-.351c0-3.224 1.066-5.747 3.27-7.429 2.132-1.682 5.259-2.593 9.31-2.593 3.838 0 6.681.841 8.529 2.593 1.919 1.752 2.843 4.065 2.843 7.009 0 2.243-.64 4.205-1.919 5.817s-2.985 2.593-5.117 2.944c2.7.28 4.762 1.261 6.183 2.873 1.421 1.612 2.132 3.785 2.132 6.378 0 3.504-1.066 6.308-3.269 8.27-2.203 1.963-5.544 3.014-10.093 3.014-4.548 0-7.889-.981-9.879-2.944-1.99-1.962-2.985-4.906-2.985-8.83h5.331c.142 1.121.213 2.172.426 3.153zM366.034 504.315c0-6.728 1.137-11.634 3.412-14.718 2.274-3.154 5.828-4.696 10.732-4.696 4.762 0 8.173 1.472 10.376 4.486 2.204 3.013 3.27 7.709 3.27 14.087 0 1.472-.071 2.944-.143 4.556a31.71 31.71 0 01-.568 4.625c-.284 1.542-.782 2.944-1.351 4.346-.639 1.331-1.421 2.593-2.487 3.574a10.564 10.564 0 01-3.909 2.453c-1.564.631-3.483.911-5.686.911-2.061 0-3.838-.28-5.33-.841a10.767 10.767 0 01-3.767-2.383c-.995-.981-1.848-2.172-2.417-3.434a16.628 16.628 0 01-1.35-4.135 47.253 47.253 0 01-.64-4.416c-.142-1.612-.142-3.013-.142-4.415zm5.402.14c0 5.607.639 9.672 1.919 12.125 1.279 2.453 3.411 3.715 6.396 3.715 1.493 0 2.772-.281 3.909-.911 1.066-.631 1.99-1.542 2.701-2.804.711-1.261 1.208-2.873 1.564-4.836.355-1.962.497-4.345.497-7.149 0-2.873-.142-5.326-.426-7.359-.285-2.032-.782-3.644-1.493-4.976-.64-1.261-1.563-2.173-2.63-2.733-1.066-.561-2.345-.841-3.837-.841-1.493 0-2.701.28-3.696.771-.995.56-1.848 1.261-2.488 2.102a10.906 10.906 0 00-1.492 3.014c-.356 1.121-.569 2.243-.711 3.434a28.75 28.75 0 00-.213 3.434v3.014z" fill="#333" />
    <path d="M428.436 511.534c0 4.065-1.066 7.009-3.198 8.901-2.132 1.892-5.473 2.803-9.95 2.803h-12.367v-37.706h23.028v3.925h-17.84v11.774h6.965c2.061 0 3.909.21 5.544.561 1.635.35 3.056.981 4.193 1.752 1.137.841 2.061 1.892 2.63 3.154.711 1.402.995 2.944.995 4.836zm-5.33.561c0-1.472-.214-2.594-.64-3.575-.426-.911-1.066-1.612-1.848-2.173-.782-.56-1.777-.911-2.914-1.051-1.137-.21-2.416-.28-3.838-.28h-5.757v14.578h5.046c1.564 0 2.985-.07 4.194-.281 1.208-.21 2.274-.56 3.127-1.051.853-.561 1.492-1.261 1.919-2.243.497-1.121.711-2.383.711-3.924zM459.282 485.532v3.995h-17.058v12.055h16.134v3.995h-16.134v13.666h17.768v3.995h-22.956v-37.706h22.246zM491.406 485.532v3.995h-10.803v33.641h-5.259v-33.641h-11.016v-3.995h27.078zM497.377 504.315c0-6.728 1.137-11.634 3.411-14.718 2.275-3.154 5.828-4.696 10.732-4.696 4.762 0 8.174 1.472 10.377 4.486 2.203 3.013 3.269 7.709 3.269 14.087 0 1.472-.071 2.944-.142 4.556a31.572 31.572 0 01-.569 4.625c-.284 1.542-.781 2.944-1.35 4.346-.64 1.331-1.421 2.593-2.487 3.574a10.58 10.58 0 01-3.909 2.453c-1.564.631-3.483.911-5.686.911-2.061 0-3.838-.28-5.331-.841a10.776 10.776 0 01-3.767-2.383c-.995-.981-1.848-2.172-2.416-3.434a16.587 16.587 0 01-1.35-4.135 46.923 46.923 0 01-.64-4.416c-.142-1.612-.142-3.013-.142-4.415zm5.401.14c0 5.607.64 9.672 1.919 12.125 1.28 2.453 3.412 3.715 6.397 3.715 1.492 0 2.772-.281 3.909-.911 1.066-.631 1.99-1.542 2.701-2.804.71-1.261 1.208-2.873 1.563-4.836.355-1.962.498-4.345.498-7.149 0-2.873-.143-5.326-.427-7.359-.284-2.032-.782-3.644-1.492-4.976-.64-1.261-1.564-2.173-2.63-2.733-1.066-.561-2.345-.841-3.838-.841-1.492 0-2.701.28-3.696.771-.995.56-1.848 1.261-2.487 2.102a10.909 10.909 0 00-1.493 3.014c-.355 1.121-.568 2.243-.711 3.434a28.75 28.75 0 00-.213 3.434v3.014zM554.306 501.021v-15.489h5.259v37.706h-5.259v-18.152h-14.783v18.152h-5.26v-37.706h5.26v15.489h14.783z" fill="#C4C4C4" />
    <path d="M595.173 510.342c-.071 1.963-.356 3.785-.853 5.467-.498 1.682-1.208 3.084-2.275 4.345-.995 1.262-2.345 2.173-3.98 2.874-1.634.701-3.624 1.051-6.041 1.051-3.127 0-5.686-.63-7.462-1.822a11.55 11.55 0 01-4.123-4.556c-.924-1.822-1.492-3.924-1.705-6.167-.214-2.243-.356-4.416-.356-6.588 0-2.173.142-4.486.356-6.799a18.438 18.438 0 011.776-6.448c.924-1.962 2.346-3.574 4.194-4.836 1.848-1.261 4.335-1.892 7.533-1.892 4.123 0 7.179.981 9.311 3.014 2.132 1.962 3.198 4.906 3.34 8.761h-5.259a18.365 18.365 0 00-.426-2.944 5.993 5.993 0 00-1.209-2.523c-.568-.771-1.35-1.332-2.274-1.822-.924-.491-2.061-.701-3.483-.701-1.492 0-2.7.28-3.624.841a7.156 7.156 0 00-2.417 2.172 9.453 9.453 0 00-1.421 3.084 15.067 15.067 0 00-.64 3.575 30.171 30.171 0 00-.213 3.574v6.027c0 1.122.071 2.173.213 3.365.142 1.121.356 2.242.711 3.364.355 1.121.782 2.032 1.421 2.943.64.841 1.422 1.542 2.346 2.033.995.491 2.132.771 3.553.771 4.904 0 7.463-3.294 7.747-9.952h5.26v-.211zM627.226 485.532v3.995h-10.803v33.641h-5.259v-33.641h-11.016v-3.995h27.078zM644.924 485.532c4.122 0 7.249.841 9.523 2.523 2.275 1.682 3.341 4.415 3.341 8.27 0 3.715-1.137 6.518-3.341 8.27-2.274 1.752-5.472 2.664-9.666 2.664h-5.97v15.909h-5.259v-37.636h11.372zm-6.042 18.082h4.762c1.422 0 2.701-.14 3.767-.35 1.066-.211 2.061-.631 2.772-1.192.782-.561 1.35-1.331 1.706-2.243.355-.911.568-2.102.568-3.574s-.213-2.663-.711-3.645c-.497-.911-1.137-1.682-1.99-2.172-.852-.491-1.847-.841-3.056-1.052-1.208-.21-2.487-.28-3.909-.28h-3.98v14.508h.071zM664.895 504.315c0-6.728 1.137-11.634 3.412-14.718 2.274-3.154 5.828-4.696 10.732-4.696 4.761 0 8.173 1.472 10.376 4.486 2.203 3.013 3.27 7.709 3.27 14.087 0 1.472-.072 2.944-.143 4.556a31.71 31.71 0 01-.568 4.625c-.284 1.542-.782 2.944-1.351 4.346-.639 1.331-1.421 2.593-2.487 3.574a10.572 10.572 0 01-3.909 2.453c-1.564.631-3.483.911-5.686.911-2.061 0-3.838-.28-5.33-.841a10.767 10.767 0 01-3.767-2.383c-.995-.981-1.848-2.172-2.417-3.434a16.628 16.628 0 01-1.35-4.135 47.253 47.253 0 01-.64-4.416c-.142-1.612-.142-3.013-.142-4.415zm5.402.14c0 5.607.639 9.672 1.919 12.125 1.279 2.453 3.411 3.715 6.396 3.715 1.493 0 2.772-.281 3.909-.911 1.066-.631 1.99-1.542 2.701-2.804.711-1.261 1.208-2.873 1.563-4.836.356-1.962.498-4.345.498-7.149 0-2.873-.142-5.326-.426-7.359-.285-2.032-.782-3.644-1.493-4.976-.64-1.261-1.564-2.173-2.63-2.733-1.066-.561-2.345-.841-3.838-.841-1.492 0-2.7.28-3.695.771-.995.56-1.848 1.261-2.488 2.102a10.879 10.879 0 00-1.492 3.014c-.356 1.121-.569 2.243-.711 3.434a28.75 28.75 0 00-.213 3.434v3.014zM722.606 523.238v-22.077c0-1.682 0-3.504.071-5.326.071-1.893.213-3.575.498-5.187h-.214c-.426 1.542-1.066 3.224-1.99 5.116a315.782 315.782 0 00-2.985 6.308l-9.808 21.166h-6.396v-37.706h5.259v21.937c0 1.682-.071 3.364-.142 5.046a60.437 60.437 0 01-.426 5.046h.213c.213-.701.497-1.612.853-2.593a37.563 37.563 0 011.279-3.224c.426-1.121.924-2.173 1.35-3.224a32.4 32.4 0 011.209-2.593l10.021-20.395h6.539v37.706h-5.331zm-1.848-42.052c-1.421 1.262-3.34 1.893-5.757 1.893-2.416 0-4.335-.631-5.757-1.893-1.421-1.261-2.132-3.013-2.274-5.186h3.269c.498 2.453 2.133 3.645 4.762 3.645 2.63 0 4.194-1.192 4.691-3.645h3.269c-.071 2.173-.781 3.925-2.203 5.186z" fill="#333" />
  </symbol>
  <use xmlns:xlink="http://www.w3.org/1999/xlink" xlink:href="#bg" />
  <use xmlns:xlink="http://www.w3.org/1999/xlink" xlink:href="#logo" />
</svg>