<svg width="146" height="16" viewBox="0 0 146 16" xmlns="http://www.w3.org/2000/svg" fill="none"><path d="M0 15.011v-11.982h6.892v1.269h-5.192v10.69h-1.7v.022zM13.83 3.029l3.809 11.982h-1.814l-.998-3.274h-4.421l-1.043 3.274h-1.768l3.99-11.982h2.245zm-1.247 1.537c-.045.2-.113.423-.204.69l-1.61 5.256h3.741l-1.519-5.234c-.068-.267-.136-.49-.159-.668-.023-.178-.068-.379-.136-.646h-.023c-.023.223-.045.423-.091.601zM20.655 12.472c.068.312.204.579.385.824.181.245.431.423.748.557.317.134.703.2 1.179.2.816 0 1.428-.2 1.882-.579.431-.401.657-.98.657-1.737 0-.891-.227-1.537-.703-1.893-.476-.356-1.202-.557-2.199-.557h-.45299999999999996l-.317.022v-1.18l.204.022.181.022h.159c.431 0 .816-.022 1.134-.111.34-.067.612-.178.861-.356.227-.178.408-.401.521-.668.113-.29.181-.646.181-1.069 0-.624-.159-1.091-.499-1.425-.34-.334-.862-.512-1.61-.512-.431 0-.771.045-1.066.156-.272.111-.499.245-.658.423-.159.178-.295.401-.34.668-.068.267-.091.557-.091.869h-1.678v-.111c0-1.024.34-1.826 1.043-2.361.68-.535 1.678-.824 2.97-.824 1.224 0 2.131.267 2.721.824.612.557.907 1.292.907 2.227 0 .713-.204 1.336-.612 1.849-.408.512-.952.824-1.632.935.861.089 1.519.401 1.972.913.453.512.68 1.203.68 2.027 0 1.114-.34 2.004-1.043 2.628-.703.624-1.768.958-3.22.958-1.451 0-2.517-.312-3.151-.935-.635-.624-.952-1.559-.952-2.806h1.7c.045.356.068.69.136 1.002zM29.678 8.998c0-2.138.363-3.697 1.088-4.677.726-1.002 1.859-1.492 3.424-1.492 1.519 0 2.607.468 3.31 1.425.703.958 1.043 2.45 1.043 4.477 0 .468-.023.935-.045 1.448-.023.512-.091 1.002-.181 1.47-.091.49-.249.935-.431 1.381-.204.423-.453.824-.794 1.136-.34.334-.748.601-1.247.78-.499.2-1.111.29-1.814.29-.657 0-1.224-.089-1.7-.267-.476-.178-.884-.445-1.202-.757-.317-.312-.589-.69-.771-1.091-.204-.423-.34-.846-.431-1.314-.091-.468-.159-.935-.204-1.403-.045-.512-.045-.958-.045-1.403zm1.723.045c0 1.782.204 3.073.612 3.853.408.779 1.088 1.18 2.041 1.18.476 0 .884-.089 1.247-.289.34-.2.635-.49.862-.891.227-.401.385-.913.499-1.537.113-.624.159-1.381.159-2.272 0-.913-.045-1.693-.136-2.339-.091-.646-.249-1.158-.476-1.581-.204-.401-.499-.69-.839-.869-.34-.178-.748-.267-1.224-.267s-.862.089-1.179.245c-.317.178-.59.401-.794.668-.204.29-.363.601-.476.958-.113.356-.181.713-.227 1.091-.045.379-.068.735-.068 1.091v.958z" fill="#fff"/><path d="M49.584 11.292c0 1.292-.34 2.227-1.02 2.829-.68.601-1.746.891-3.174.891h-3.945v-11.982h7.346v1.247h-5.691v3.742h2.222c.657 0 1.247.067 1.768.178.521.111.975.312 1.338.557.363.267.657.601.839 1.002.227.445.317.935.317 1.537zm-1.7.178c0-.468-.068-.824-.204-1.136-.136-.29-.34-.512-.59-.69-.249-.178-.567-.29-.93-.334-.363-.067-.771-.089-1.224-.089h-1.836v4.632h1.61c.499 0 .952-.022 1.338-.089.385-.067.726-.178.998-.334.272-.178.476-.401.612-.713.159-.356.227-.757.227-1.247zM59.423 3.029v1.269h-5.441v3.831h5.147v1.269h-5.147v4.343h5.668v1.269h-7.323v-11.982h7.096zM69.671 3.029v1.269h-3.446v10.69h-1.678v-10.69h-3.514v-1.269h8.638zM71.576 8.998c0-2.138.363-3.697 1.088-4.677.726-1.002 1.859-1.492 3.424-1.492 1.519 0 2.607.468 3.31 1.425.703.958 1.043 2.45 1.043 4.477 0 .468-.023.935-.045 1.448-.023.512-.091 1.002-.181 1.47-.091.49-.249.935-.431 1.381-.204.423-.453.824-.794 1.136-.34.334-.748.601-1.247.78-.499.2-1.111.29-1.814.29-.657 0-1.224-.089-1.7-.267-.476-.178-.884-.445-1.202-.757-.317-.312-.589-.69-.771-1.091-.204-.423-.34-.846-.431-1.314-.091-.468-.159-.935-.204-1.403-.045-.512-.045-.958-.045-1.403zm1.723.045c0 1.782.204 3.073.612 3.853.408.779 1.088 1.18 2.04 1.18.476 0 .884-.089 1.247-.289.34-.2.635-.49.862-.891.227-.401.385-.913.499-1.537.113-.624.159-1.381.159-2.272 0-.913-.045-1.693-.136-2.339-.091-.646-.249-1.158-.476-1.581-.204-.401-.499-.69-.839-.869-.34-.178-.748-.267-1.224-.267s-.862.089-1.179.245c-.317.178-.589.401-.794.668-.204.29-.363.601-.476.958-.113.356-.181.713-.227 1.091-.045.379-.068.735-.068 1.091v.958zM89.736 7.951v-4.922h1.678v11.982h-1.678v-5.768h-4.716v5.768h-1.678v-11.982h1.678v4.922h4.716z" fill="#87A731"/><path d="M102.773 10.913c-.023.624-.113 1.203-.272 1.737-.159.534-.386.98-.726 1.381-.317.401-.748.69-1.269.913-.522.223-1.156.334-1.927.334-.997 0-1.814-.2-2.38-.579-.59-.379-1.02-.869-1.315-1.448-.295-.579-.476-1.247-.544-1.96-.068-.713-.113-1.403-.113-2.093s.045-1.425.113-2.16c.068-.757.272-1.448.567-2.049.295-.624.748-1.136 1.338-1.537.59-.401 1.383-.601 2.403-.601 1.315 0 2.29.312 2.97.958.68.624 1.02 1.559 1.065 2.784h-1.677c-.023-.334-.068-.646-.136-.935-.068-.312-.205-.579-.386-.802-.181-.245-.431-.423-.725-.579-.295-.156-.657-.223-1.111-.223-.476 0-.862.089-1.156.267-.317.178-.567.401-.771.69-.204.29-.363.624-.453.98-.113.379-.181.735-.204 1.136-.045.379-.068.757-.068 1.136v1.915c0 .356.023.691.068 1.069.045.356.113.713.227 1.069.113.356.249.646.453.935.204.267.453.49.748.646.317.156.68.245 1.134.245 1.564 0 2.381-1.047 2.471-3.163h1.678v-.067zM112.998 3.029v1.269h-3.446v10.69h-1.677v-10.69h-3.515v-1.269h8.638zM118.643 3.029c1.315 0 2.313.267 3.038.802.726.535 1.066 1.403 1.066 2.628 0 1.18-.363 2.071-1.066 2.628-.725.557-1.746.846-3.083.846h-1.905v5.056h-1.677v-11.96h3.627zm-1.927 5.746h1.519c.454 0 .862-.045 1.202-.111.34-.067.657-.2.884-.379.249-.178.431-.423.544-.713.113-.29.181-.668.181-1.136 0-.468-.068-.846-.226-1.158-.159-.29-.363-.535-.635-.69-.272-.156-.59-.267-.975-.334s-.794-.089-1.247-.089h-1.27v4.61h.023zM125.015 8.998c0-2.138.362-3.697 1.088-4.677.725-1.002 1.859-1.492 3.423-1.492 1.519 0 2.608.468 3.311 1.425.702.958 1.043 2.45 1.043 4.477 0 .468-.023.935-.046 1.448-.023.512-.091 1.002-.181 1.47-.091.49-.25.935-.431 1.381-.204.423-.453.824-.794 1.136-.34.334-.748.601-1.246.78-.499.2-1.111.29-1.814.29-.658 0-1.225-.089-1.701-.267-.476-.178-.884-.445-1.201-.757-.318-.312-.59-.69-.771-1.091-.204-.423-.34-.846-.431-1.314-.091-.468-.159-.935-.204-1.403-.045-.512-.045-.958-.045-1.403zm1.723.045c0 1.782.204 3.073.612 3.853.408.779 1.088 1.18 2.04 1.18.477 0 .885-.089 1.247-.289.34-.2.635-.49.862-.891.227-.401.385-.913.499-1.537.113-.624.158-1.381.158-2.272 0-.913-.045-1.693-.136-2.339-.09-.646-.249-1.158-.476-1.581-.204-.401-.499-.69-.839-.869-.34-.178-.748-.267-1.224-.267s-.861.089-1.179.245c-.317.178-.589.401-.793.668-.204.29-.363.601-.477.958-.113.356-.181.713-.226 1.091-.046.379-.068.735-.068 1.091v.958zM143.424 15.011v-7.016c0-.535 0-1.114.023-1.693.023-.601.068-1.136.159-1.648h-.068c-.136.49-.341 1.024-.635 1.626-.295.601-.612 1.269-.952 2.004l-3.129 6.726h-2.041v-11.982h1.678v6.971c0 .535-.023 1.069-.045 1.604-.023.534-.068 1.069-.136 1.604h.068c.068-.223.158-.512.272-.824.113-.334.249-.668.408-1.024.136-.356.295-.69.431-1.024.136-.334.272-.601.385-.824l3.197-6.481h2.086v11.982h-1.701zm-.589-13.363c-.454.401-1.066.601-1.837.601-.771 0-1.383-.2-1.836-.601-.454-.401-.68-.958-.726-1.648h1.043c.159.78.68 1.158 1.519 1.158.839 0 1.338-.379 1.497-1.158h1.043c-.023.69-.25 1.247-.703 1.648z" fill="#fff"/></svg>