<svg width="47" height="64" viewBox="0 0 47 64" xmlns="http://www.w3.org/2000/svg" fill="none"><path d="M32.254 39.505l-14.711 5.033c-1.151.395-2.352-.197-2.752-1.332-.4-1.086.2-2.319 1.351-2.664l14.661-5.033c1.151-.395 2.352.197 2.752 1.332.4 1.086-.2 2.27-1.301 2.665zM32.254 45.969l-14.711 5.033c-1.151.395-2.352-.197-2.752-1.332-.4-1.086.2-2.319 1.351-2.664l14.661-5.082c1.151-.395 2.352.197 2.752 1.332.4 1.135-.2 2.319-1.301 2.714zM32.254 52.679l-14.711 5.033c-1.151.395-2.352-.197-2.752-1.332-.4-1.086.2-2.319 1.351-2.665l14.711-5.033c1.151-.395 2.352.197 2.752 1.332.35 1.086-.25 2.27-1.351 2.664zM25.098 63.337c-1.851.691-3.903-.197-4.603-2.023l-.45-1.085c-.2-.493.05-1.036.55-1.234l6.505-2.467c.35-.148.75.049.851.395 1.051 2.566-.25 5.428-2.852 6.415z" fill="#FCE285"/><path d="M31.704 24.011c-.901-5.329-6.955-13.915-9.007-14.457-1.351-.395 1.901 2.961-1.451 6.464-3.202 3.355-5.954 4.934-5.654 9.375.2 2.714 2.202 5.082 4.353 6.365.2.099.45.099.6-.099 1.451-1.48 4.353-5.033 3.903-9.77 0 0 1.651 6.168-1.001 10.115-.25.345.05.789.45.74 5.704-.493 8.556-4.392 7.806-8.734z" fill="#87A731"/><path d="M10.866 36.743c-.761 0-1.358-.589-1.358-1.339v-9.107h-5.975c-1.412 0-2.716-.857-3.259-2.143-.543-1.286-.272-2.786.76-3.75l18.741-18.427c1.901-1.875 5.052-1.875 6.953 0l18.632 18.427c1.032 1.018 1.304 2.464.761 3.75s-1.793 2.143-3.259 2.143h-5.975v6.321c0 .75-.597 1.339-1.358 1.339-.761 0-1.358-.589-1.358-1.339v-7.66c0-.75.598-1.339 1.358-1.339h7.333c.489 0 .652-.321.761-.482.054-.161.163-.536-.163-.857l-18.687-18.374c-.869-.857-2.227-.857-3.096 0l-18.741 18.374c-.326.321-.217.696-.163.857.054.161.272.482.76.482h7.333c.76 0 1.358.589 1.358 1.339v10.446c0 .75-.652 1.339-1.358 1.339z" fill="#fff"/></svg>