<svg width="80" height="80" viewBox="0 0 80 80" fill="none" xmlns="http://www.w3.org/2000/svg">
<path d="M77.902 33.0394C78.1351 33.2231 78.4185 33.3174 78.7043 33.3174C78.8968 33.3174 79.0901 33.2746 79.2698 33.1875C79.7165 32.9708 80 32.5179 80 32.0215V25.1101C80 24.713 79.8181 24.3379 79.5062 24.0922L58.4092 7.47035C56.9296 6.30456 54.8629 6.30473 53.3833 7.47035L45.4428 13.7266V11.2872C45.4428 10.5715 44.8625 9.9913 44.1469 9.9913H38.6177C37.902 9.9913 37.3218 10.5715 37.3218 11.2872V20.125L32.2865 24.0922C31.9746 24.3379 31.7927 24.713 31.7927 25.1101V32.0215C31.7927 32.5179 32.0762 32.9708 32.5229 33.1875C32.9693 33.4042 33.5006 33.3468 33.8906 33.0396L34.5572 32.5143V45.1426L22.4696 35.6191C20.9901 34.4533 18.9234 34.4533 17.4438 35.6191L0.493823 48.9734C0.181944 49.2189 0 49.5942 0 49.9913V56.9027C0 57.3992 0.283542 57.852 0.730194 58.0687C0.909892 58.156 1.10324 58.1986 1.29572 58.1986C1.58134 58.1986 1.86488 58.1043 2.09797 57.9206L2.76458 57.3954V70.812H1.2959C0.580216 70.812 0 71.3922 0 72.1079C0 72.8236 0.580216 73.4038 1.2959 73.4038H78.7041C79.4198 73.4038 80 72.8236 80 72.1079C80 71.3922 79.4198 70.812 78.7041 70.812H77.2354V32.5141L77.902 33.0394ZM39.9136 12.5831H42.851V15.7687L39.9136 18.083V12.5831ZM34.3844 25.7389L54.9875 9.50629C55.5226 9.08469 56.2702 9.08469 56.8054 9.50629L77.4082 25.7389V29.3506L56.6984 13.0339C56.4632 12.8485 56.1799 12.7559 55.8963 12.7559C55.6128 12.7559 55.3296 12.8485 55.0943 13.0339L34.3844 29.3506V25.7389ZM2.59179 50.6201L19.0479 37.6547C19.5831 37.2331 20.3307 37.2331 20.8658 37.6547L34.5572 48.4419V52.0538L20.7589 41.1823C20.2884 40.8115 19.6252 40.8115 19.1549 41.1823L2.59179 54.232V50.6201ZM5.35637 55.3534L19.9568 43.8501L34.5572 55.3535V70.8122H28.8553V55.5206C28.8553 54.8049 28.2751 54.2247 27.5594 54.2247H12.3542C11.6385 54.2247 11.0583 54.8049 11.0583 55.5206V70.8122H5.35637V55.3534ZM13.6501 62.3455H26.2635V65.2829H13.6501V62.3455ZM26.2635 59.7537H13.6501V56.8163H26.2635V59.7537ZM13.6501 67.8747H26.2635V70.812H13.6501V67.8747ZM51.1447 61.1403C51.116 61.1384 51.0872 61.136 51.0583 61.136C50.7179 61.136 50.3827 61.2742 50.1426 61.5161C49.9007 61.7563 49.7624 62.0915 49.7624 62.4319C49.7624 62.7723 49.9007 63.1075 50.1426 63.3477C50.3827 63.5896 50.7179 63.7278 51.0583 63.7278C51.0872 63.7278 51.116 63.7254 51.1447 63.7235V70.812H45.4428V54.0518H51.1447V61.1403ZM74.6436 70.812H53.7365V52.7559C53.7365 52.0402 53.1563 51.46 52.4406 51.46H44.1469C43.4312 51.46 42.851 52.0402 42.851 52.7559V70.812H37.149V30.4722L55.8963 15.7015L74.6436 30.4722V70.812Z" fill="#EAEAEA"/>
<path d="M59.352 65.1101H67.6458C68.3615 65.1101 68.9417 64.5298 68.9417 63.8142V52.7559C68.9417 52.0402 68.3615 51.46 67.6458 51.46H59.352C58.6364 51.46 58.0562 52.0402 58.0562 52.7559V63.8142C58.0562 64.5298 58.6364 65.1101 59.352 65.1101ZM60.6479 62.5183V58.1986H66.3499V62.5183H60.6479ZM66.3499 54.0518V55.6068H60.6479V54.0518H66.3499Z" fill="#EAEAEA"/>
<path d="M59.352 45.758H67.6458C68.3615 45.758 68.9417 45.1778 68.9417 44.4621V33.4038C68.9417 32.6881 68.3615 32.1079 67.6458 32.1079H59.352C58.6364 32.1079 58.0562 32.6881 58.0562 33.4038V44.4621C58.0562 45.1778 58.6364 45.758 59.352 45.758ZM60.6479 43.1662V38.8466H66.3499V43.1662H60.6479ZM66.3499 34.6997V36.2548H60.6479V34.6997H66.3499Z" fill="#EAEAEA"/>
<path d="M52.4407 32.1079H44.147C43.4313 32.1079 42.8511 32.6881 42.8511 33.4038V44.4621C42.8511 45.1778 43.4313 45.758 44.147 45.758H52.4407C53.1564 45.758 53.7366 45.1778 53.7366 44.4621V33.4038C53.7366 32.6881 53.1564 32.1079 52.4407 32.1079ZM51.1448 34.6997V36.2548H45.4429V34.6997H51.1448ZM45.4429 43.1662V38.8466H51.1448V43.1662H45.4429Z" fill="#EAEAEA"/>
</svg>
