<svg width="766" height="541" viewBox="0 0 766 541" xmlns="http://www.w3.org/2000/svg" fill="none"><path d="M544.049 38.468l156.489 155.976M701.555 195.461v-21.531l-157.506-156.994" stroke="#FCE285" stroke-miterlimit="10"/><path d="M714.441 201.226c0 2.882-2.373 5.256-5.256 5.256h-332.306c-2.882 0-5.256-2.374-5.256-5.256v-.509c0-2.882 2.374-5.255 5.256-5.255h332.476c2.882 0 5.256 2.373 5.256 5.255v.509h-.17zM701.555 195.462h27.806v-8.986l-185.312-185.476M544.05 38.468l-156.489 155.976M386.373 195.461v-21.531l157.676-156.994M386.374 195.462h-27.806v-8.986l185.482-185.476" stroke="#FCE285" stroke-miterlimit="10"/><path d="M445.713 215.976h-29.67v30.517h29.67v-30.517zM440.967 220.892h-20.176v20.684h20.176v-20.684zM430.793 220.892v20.515" stroke="#FCE285" stroke-miterlimit="10"/><path d="M667.139 215.976h-29.67v30.517h29.67v-30.517zM662.393 220.892h-20.176v20.684h20.176v-20.684zM652.219 220.892v20.515" stroke="#FCE285" stroke-miterlimit="10"/><path d="M582.366 215.976h-77.481v76.462h77.481v-76.462zM577.28 220.892h-67.309v66.29h67.309v-66.29zM546.933 220.892h-6.613v66.29h6.613v-66.29zM540.319 252.766h-30.348v3.391h30.348v-3.391zM577.28 252.766h-30.348v3.391h30.348v-3.391zM524.553 220.892v31.874M562.699 220.892v31.874" stroke="#FCE285" stroke-miterlimit="10"/><path d="M504.885 219.706h-16.446v69.341h16.446v-69.341zM504.886 222.927h-13.394v60.695h13.394v-60.695zM504.886 250.731h-13.394v4.578h13.394v-4.578zM598.813 219.706h-16.446v69.341h16.446v-69.341zM595.761 222.927h-13.394v60.695h13.394v-60.695zM595.761 250.731h-13.394v4.578h13.394v-4.578zM388.238 206.482h-6.951v92.907h6.951v-92.907zM701.557 206.482h-6.952v92.907h6.952v-92.907zM361.28 299.389h360.112l40.182 18.65h-410.297l10.003-18.65zM742.586 322.786h-387.408v4.916h387.408v-4.916zM645.606 369.748h-16.446v69.342h16.446v-69.342zM642.554 372.969h-13.394v60.695h13.394v-60.695zM642.554 400.604h-13.394v4.578h13.394v-4.578zM585.418 369.748h-16.445v69.342h16.445v-69.342zM585.587 372.969h-13.394v60.695h13.394v-60.695zM585.587 400.604h-13.394v4.578h13.394v-4.578zM628.991 365.51h-43.573v77.649h43.573v-77.649zM624.243 369.748h-33.739v69.342h33.739v-69.342zM624.243 402.978h-33.739v4.069h33.739v-4.069zM607.289 369.748v33.23" stroke="#FCE285" stroke-miterlimit="10"/><path d="M317.032 371.104h-16.446v69.342h16.446v-69.342zM313.98 374.325h-13.394v60.696h13.394v-60.696zM313.98 402.13h-13.394v4.577h13.394v-4.577zM257.012 371.104h-16.446v69.342h16.446v-69.342zM257.013 374.325h-13.394v60.696h13.394v-60.696zM257.013 402.13h-13.394v4.577h13.394v-4.577zM300.585 367.035h-43.573v77.649h43.573v-77.649zM295.669 371.104h-33.739v69.342h33.739v-69.342zM295.669 404.334h-33.739v4.069h33.739v-4.069zM278.713 371.104v33.23" stroke="#FCE285" stroke-miterlimit="10"/><path d="M181.733 371.104h-16.446v69.342h16.446v-69.342zM178.681 374.325h-13.394v60.696h13.394v-60.696zM178.681 402.13h-13.394v4.577h13.394v-4.577zM121.545 371.104h-16.445v69.342h16.445v-69.342zM121.714 374.325h-13.394v60.696h13.394v-60.696zM121.714 402.13h-13.394v4.577h13.394v-4.577zM165.118 367.035h-43.573v77.649h43.573v-77.649zM160.202 371.104h-33.739v69.342h33.739v-69.342zM160.202 404.334h-33.739v4.069h33.739v-4.069zM143.416 371.104v33.23" stroke="#FCE285" stroke-miterlimit="10"/><path d="M391.799 346.012c0 1.357-1.187 2.544-2.544 2.544h-23.058c-1.356 0-2.543-1.187-2.543-2.544 0-1.356 1.187-2.543 2.543-2.543h23.058c1.357-.169 2.544 1.018 2.544 2.543zM386.882 348.556h-18.311l-4.917 89.516h28.145l-4.917-89.516zM397.902 441.972c0 1.356-1.187 2.543-2.543 2.543h-35.265c-1.356 0-2.543-1.187-2.543-2.543v-1.187c0-1.356 1.187-2.543 2.543-2.543h35.265c1.356 0 2.543 1.187 2.543 2.543v1.187zM393.325 444.515h-31.196v85.278h31.196v-85.278zM383.152 444.515h-21.023v10.681h21.023v-10.681zM393.325 444.515h-10.173v10.681h10.173v-10.681zM393.324 455.196h-21.023v10.681h21.023v-10.681zM372.302 455.196h-10.173v10.681h10.173v-10.681zM383.152 465.877h-21.023v10.681h21.023v-10.681zM393.325 465.877h-10.173v10.681h10.173v-10.681zM393.324 476.558h-21.023v10.681h21.023v-10.681zM372.302 476.558h-10.173v10.681h10.173v-10.681zM383.152 487.239h-21.023v10.681h21.023v-10.681zM393.325 487.239h-10.173v10.681h10.173v-10.681zM393.324 497.92h-21.023v10.681h21.023v-10.681zM372.302 497.92h-10.173v10.681h10.173v-10.681zM383.152 508.601h-21.023v10.681h21.023v-10.681zM393.325 508.601h-10.173v10.681h10.173v-10.681zM393.324 519.282h-21.023v10.681h21.023v-10.681zM372.302 519.282h-10.173v10.681h10.173v-10.681zM533.029 346.012c0 1.357-1.187 2.544-2.543 2.544h-23.058c-1.356 0-2.543-1.187-2.543-2.544 0-1.356 1.187-2.543 2.543-2.543h23.058c1.526-.169 2.543 1.018 2.543 2.543zM528.282 348.556h-18.48l-4.917 89.516h28.144l-4.747-89.516zM539.133 441.972c0 1.356-1.187 2.543-2.543 2.543h-35.266c-1.356 0-2.543-1.187-2.543-2.543v-1.187c0-1.356 1.187-2.543 2.543-2.543h35.266c1.356 0 2.543 1.187 2.543 2.543v1.187zM534.556 444.515h-31.197v85.278h31.197v-85.278zM524.383 444.515h-21.024v10.681h21.024v-10.681zM534.555 444.515h-10.172v10.681h10.172v-10.681zM534.555 455.196h-21.024v10.681h21.024v-10.681zM513.532 455.196h-10.173v10.681h10.173v-10.681zM524.383 465.877h-21.024v10.681h21.024v-10.681zM534.555 465.877h-10.172v10.681h10.172v-10.681zM534.555 476.558h-21.024v10.681h21.024v-10.681zM513.532 476.558h-10.173v10.681h10.173v-10.681zM524.383 487.239h-21.024v10.681h21.024v-10.681zM534.555 487.239h-10.172v10.681h10.172v-10.681zM534.555 497.92h-21.024v10.681h21.024v-10.681zM513.532 497.92h-10.173v10.681h10.173v-10.681zM524.383 508.601h-21.024v10.681h21.024v-10.681zM534.555 508.601h-10.172v10.681h10.172v-10.681zM534.555 519.282h-21.024v10.681h21.024v-10.681zM513.532 519.282h-10.173v10.681h10.173v-10.681zM740.72 346.012c0 1.357-1.186 2.544-2.543 2.544h-23.058c-1.356 0-2.543-1.187-2.543-2.544 0-1.356 1.187-2.543 2.543-2.543h23.058c1.357-.169 2.543 1.018 2.543 2.543zM735.804 348.556h-18.311l-4.917 89.516h28.144l-4.916-89.516zM746.824 441.972c0 1.356-1.187 2.543-2.543 2.543h-35.265c-1.357 0-2.543-1.187-2.543-2.543v-1.187c0-1.356 1.186-2.543 2.543-2.543h35.265c1.356 0 2.543 1.187 2.543 2.543v1.187zM742.247 444.515h-31.196v85.278h31.196v-85.278zM732.074 444.515h-21.023v10.681h21.023v-10.681zM742.247 444.515h-10.173v10.681h10.173v-10.681zM742.246 455.196h-21.023v10.681h21.023v-10.681zM721.223 455.196h-10.172v10.681h10.172v-10.681zM732.074 465.877h-21.023v10.681h21.023v-10.681zM742.247 465.877h-10.173v10.681h10.173v-10.681zM742.246 476.558h-21.023v10.681h21.023v-10.681zM721.223 476.558h-10.172v10.681h10.172v-10.681zM732.074 487.239h-21.023v10.681h21.023v-10.681zM742.247 487.239h-10.173v10.681h10.173v-10.681zM742.246 497.92h-21.023v10.681h21.023v-10.681zM721.223 497.92h-10.172v10.681h10.172v-10.681zM732.074 508.601h-21.023v10.681h21.023v-10.681zM742.247 508.601h-10.173v10.681h10.173v-10.681zM742.246 519.282h-21.023v10.681h21.023v-10.681zM721.223 519.282h-10.172v10.681h10.172v-10.681zM696.301 356.524h-4.408v141.396h4.408v-141.396zM528.621 356.524h167.679l18.82-7.968h-186.499M509.802 348.556h-122.919l.508 7.968h122.072M375.354 327.702v15.598M729.021 327.702v15.598" stroke="#FCE285" stroke-miterlimit="10"/><path d="M503.358 497.92h-110.034v14.241h110.034v-14.241zM394.172 506.905h109.186" stroke="#FCE285" stroke-miterlimit="10"/><path d="M711.05 497.92h-176.495v32.043h176.495v-32.043zM503.358 512.161h-110.034v14.241h110.034v-14.241zM394.172 521.147h109.186" stroke="#FCE285" stroke-miterlimit="10"/><path d="M503.358 526.233h-110.034v14.241h110.034v-14.241zM394.172 535.388h109.186" stroke="#FCE285" stroke-miterlimit="10"/><path d="M475.554 374.156h-54.423v112.744h54.423v-112.744zM467.925 381.107h-38.995v99.011h38.995v-99.011zM451.647 381.107h-6.612v99.011h6.612v-99.011zM461.989 441.463c0 1.356-1.017 2.374-2.373 2.374-1.357 0-2.374-1.018-2.374-2.374s1.017-2.373 2.374-2.373c1.356 0 2.373 1.017 2.373 2.373zM467.585 427.561h-16.106v5.934h16.106v-5.934zM445.036 427.561h-16.106v5.934h16.106v-5.934zM393.324 455.196h27.805M475.555 455.196h27.805" stroke="#FCE285" stroke-miterlimit="10"/><path d="M38.808 356.524h-6.443v152.077h6.443v-152.077zM362.129 455.196h-323.32v53.405h323.32v-53.405zM53.219 455.196v53.405M69.666 455.196v53.405M85.941 455.196v53.405M102.387 455.196v53.405M118.664 455.196v53.405M135.109 455.196v53.405M151.385 455.196v53.405M167.832 455.196v53.405M184.107 455.196v53.405M200.553 455.196v53.405M216.83 455.196v53.405M233.275 455.196v53.405M249.551 455.196v53.405M265.998 455.196v53.405M282.273 455.196v53.405M298.719 455.196v53.405M314.996 455.196v53.405M331.441 455.196v53.405M347.717 455.196v53.405M544.049 497.92v31.873M559.816 497.92v31.873M575.754 497.92v31.873M591.521 497.92v31.873M607.289 497.92v31.873M623.057 497.92v31.873M638.994 497.92v31.873M654.762 497.92v31.873M670.529 497.92v31.873M686.297 497.92v31.873M702.234 497.92v31.873" stroke="#FCE285" stroke-miterlimit="10"/><path d="M543.54 140.192c19.009 0 34.418-15.409 34.418-34.417 0-19.007-15.409-34.416-34.418-34.416-19.008 0-34.417 15.409-34.417 34.416 0 19.008 15.409 34.417 34.417 34.417zM543.541 132.054c14.514 0 26.279-11.765 26.279-26.279 0-14.513-11.765-26.278-26.279-26.278s-26.279 11.765-26.279 26.278c0 14.514 11.765 26.279 26.279 26.279zM539.303 131.715c1.356.169 2.882.339 4.408.339 1.526 0 2.882-.17 4.408-.339v-51.71c-1.356-.169-2.882-.339-4.408-.339-1.526 0-2.882.169-4.408.339v51.71zM517.43 105.775v1.696h21.871v-3.561h-21.702c-.169.679-.169 1.357-.169 1.865zM569.819 105.775v1.696h-21.702v-3.561h21.702v1.865zM421.809 160.367h244.482M406.211 175.795v19.666M428.93 160.367v35.095M451.479 160.367v35.095M474.197 160.367v35.095M496.916 160.367v35.095M519.635 160.367v35.095M542.354 160.367v35.095M564.904 160.367v35.095M587.623 160.367v35.095M610.342 160.367v35.095M633.061 160.367v35.095M655.779 160.367v35.095M678.328 172.404v23.058M428.93 153.416h230.41" stroke="#FCE285" stroke-miterlimit="10"/><path d="M765.305 320.412c0 1.356-1.017 2.374-2.373 2.374h-415.722c-1.357 0-2.374-1.018-2.374-2.374s1.017-2.373 2.374-2.373h415.552c1.356 0 2.543 1.017 2.543 2.373zM375.353 333.127h-371.979c-1.356 0-2.374 1.018-2.374 2.374s1.017 2.374 2.374 2.374h371.979v-4.748zM375.523 337.875h-365.537v5.425h365.537v-5.425zM368.063 356.524h-345.87v-13.224M9.986 333.127l80.533-88.838h84.772" stroke="#FCE285" stroke-miterlimit="10"/><path d="M287.529 232.421h-77.482v76.462h77.482v-76.462zM282.442 237.507h-67.309v66.29h67.309v-66.29zM252.095 237.507h-6.613v66.29h6.613v-66.29zM245.481 269.211h-30.348v3.391h30.348v-3.391zM282.442 269.211h-30.348v3.391h30.348v-3.391zM229.715 237.507v31.704M267.861 237.507v31.704" stroke="#FCE285" stroke-miterlimit="10"/><path d="M210.047 236.151h-16.445v69.342h16.445v-69.342zM210.216 239.372h-13.394v60.695h13.394v-60.695zM210.216 267.177h-13.394v4.577h13.394v-4.577zM303.975 236.151h-16.446v69.342h16.446v-69.342zM300.923 239.372h-13.394v60.695h13.394v-60.695zM300.923 267.177h-13.394v4.577h13.394v-4.577zM181.904 221.062h-6.273v87.821h6.273v-87.821zM322.117 221.062h-6.273v87.821h6.273v-87.821zM329.916 213.941h-162.084v7.121h162.084v-7.121zM292.446 167.148h-87.485l-44.59 40.69v6.103h177.004v-6.103l-44.929-40.69zM322.117 244.289h59.171M160.371 207.838h177.004M105.1 244.289l56.797-64.425h29.161M306.518 179.864h58.662" stroke="#FCE285" stroke-miterlimit="10"/><path d="M752.081 530.132h-248.722v10.342h248.722c1.525 0 2.882-1.187 2.882-2.713v-4.916c0-1.526-1.357-2.713-2.882-2.713zM350.599 530.132h42.556v10.342h-42.556c-1.526 0-2.882-1.187-2.882-2.713v-4.916c0-1.526 1.356-2.713 2.882-2.713zM362.128 508.601h-338.41c-1.526 0-2.882 1.186-2.882 2.882v5.086c0 1.526 1.187 2.882 2.882 2.882h338.41v-10.85z" stroke="#FCE285" stroke-miterlimit="10"/></svg>