<svg width="625" height="441" viewBox="0 0 625 441" xmlns="http://www.w3.org/2000/svg" fill="none"><path d="M443.387 31.523l127.481 127.063M571.697 159.415v-17.54l-128.31-127.892" stroke="#87A731" stroke-miterlimit="10"/><path d="M582.193 164.111c0 2.348-1.933 4.281-4.281 4.281h-270.709c-2.348 0-4.281-1.933-4.281-4.281v-.414c0-2.348 1.933-4.282 4.281-4.282h270.847c2.348 0 4.281 1.934 4.281 4.282v.414h-.138zM571.697 159.415h22.651v-7.32l-150.961-151.095M443.386 31.523l-127.482 127.063M314.938 159.415v-17.54l128.448-127.892M314.938 159.415h-22.651v-7.32l151.099-151.095" stroke="#87A731" stroke-miterlimit="10"/><path d="M363.278 176.127h-24.171v24.86h24.171v-24.86zM359.412 180.132h-16.435v16.85h16.435v-16.85zM351.125 180.132v16.712" stroke="#87A731" stroke-miterlimit="10"/><path d="M543.659 176.127h-24.171v24.86h24.171v-24.86zM539.793 180.132h-16.436v16.85h16.436v-16.85zM531.504 180.132v16.712" stroke="#87A731" stroke-miterlimit="10"/><path d="M474.6 176.127h-63.12v62.288h63.12v-62.288zM470.457 180.132h-54.832v54.002h54.832v-54.002zM445.734 180.132h-5.386v54.002h5.386v-54.002zM440.348 206.097h-24.723v2.762h24.723v-2.762zM470.457 206.097h-24.723v2.762h24.723v-2.762zM427.504 180.132v25.965M458.58 180.132v25.965" stroke="#87A731" stroke-miterlimit="10"/><path d="M411.481 179.165h-13.397v56.488h13.397v-56.488zM411.484 181.789h-10.912v49.445h10.912v-49.445zM411.484 204.44h-10.912v3.729h10.912v-3.729zM487.999 179.165h-13.397v56.488h13.397v-56.488zM485.513 181.789h-10.911v49.445h10.911v-49.445zM485.513 204.44h-10.911v3.729h10.911v-3.729zM316.458 168.392h-5.663v75.686h5.663v-75.686zM571.696 168.392h-5.663v75.686h5.663v-75.686zM294.497 244.078h293.359l32.733 15.192h-334.241l8.149-15.192zM605.121 263.138h-315.596v4.005h315.596v-4.005zM526.118 301.395h-13.397v56.488h13.397v-56.488zM523.632 304.019h-10.911v49.444h10.911v-49.444zM523.632 326.531h-10.911v3.729h10.911v-3.729zM477.087 301.395h-13.398v56.488h13.398v-56.488zM477.226 304.019h-10.912v49.444h10.912v-49.444zM477.226 326.531h-10.912v3.729h10.912v-3.729zM512.582 297.942h-35.496v63.256h35.496v-63.256zM508.716 301.395h-27.486v56.488h27.486v-56.488zM508.716 328.465h-27.486v3.315h27.486v-3.315zM494.904 301.395v27.07" stroke="#87A731" stroke-miterlimit="10"/><path d="M258.452 302.5h-13.397v56.488h13.397v-56.488zM255.966 305.124h-10.911v49.444h10.911v-49.444zM255.966 327.774h-10.911v3.729h10.911v-3.729zM209.557 302.5h-13.397v56.488h13.397v-56.488zM209.558 305.124h-10.912v49.444h10.912v-49.444zM209.558 327.774h-10.912v3.729h10.912v-3.729zM245.053 299.185h-35.496v63.255h35.496v-63.255zM241.048 302.5h-27.486v56.488h27.486v-56.488zM241.048 329.57h-27.486v3.314h27.486v-3.314zM227.236 302.5v27.07" stroke="#87A731" stroke-miterlimit="10"/><path d="M148.231 302.5h-13.397v56.488h13.397v-56.488zM145.745 305.124h-10.911v49.444h10.911v-49.444zM145.745 327.774h-10.911v3.729h10.911v-3.729zM99.2 302.5h-13.397v56.488h13.397v-56.488zM99.339 305.124h-10.911v49.444h10.911v-49.444zM99.339 327.774h-10.911v3.729h10.911v-3.729zM134.695 299.185h-35.496v63.256h35.496v-63.256zM130.69 302.5h-27.485v56.488h27.485v-56.488zM130.69 329.57h-27.485v3.314h27.485v-3.314zM117.018 302.5v27.07" stroke="#87A731" stroke-miterlimit="10"/><path d="M319.359 282.059c0 1.105-.967 2.072-2.072 2.072h-18.784c-1.105 0-2.071-.967-2.071-2.072s.966-2.072 2.071-2.072h18.784c1.105-.138 2.072.829 2.072 2.072zM315.354 284.131h-14.917l-4.005 72.923h22.927l-4.005-72.923zM324.331 360.231c0 1.105-.967 2.071-2.072 2.071h-28.728c-1.105 0-2.072-.966-2.072-2.071v-.967c0-1.105.967-2.072 2.072-2.072h28.728c1.105 0 2.072.967 2.072 2.072v.967zM320.603 362.302h-25.414v69.471h25.414v-69.471zM312.314 362.303h-17.126v8.701h17.126v-8.701zM320.601 362.303h-8.287v8.701h8.287v-8.701zM320.599 371.004h-17.126v8.701h17.126v-8.701zM303.475 371.004h-8.287v8.701h8.287v-8.701zM312.314 379.705h-17.126v8.701h17.126v-8.701zM320.601 379.705h-8.287v8.701h8.287v-8.701zM320.599 388.406h-17.126v8.701h17.126v-8.701zM303.475 388.406h-8.287v8.701h8.287v-8.701zM312.314 397.107h-17.126v8.701h17.126v-8.701zM320.601 397.107h-8.287v8.701h8.287v-8.701zM320.599 405.808h-17.126v8.701h17.126v-8.701zM303.475 405.808h-8.287v8.701h8.287v-8.701zM312.314 414.509h-17.126v8.701h17.126v-8.701zM320.601 414.509h-8.287v8.701h8.287v-8.701zM320.599 423.21h-17.126v8.701h17.126v-8.701zM303.475 423.21h-8.287v8.701h8.287v-8.701zM434.41 282.059c0 1.105-.967 2.072-2.072 2.072h-18.784c-1.105 0-2.072-.967-2.072-2.072s.967-2.072 2.072-2.072h18.784c1.243-.138 2.072.829 2.072 2.072zM430.542 284.131h-15.054l-4.006 72.923h22.928l-3.868-72.923zM439.381 360.231c0 1.105-.966 2.071-2.071 2.071h-28.728c-1.105 0-2.072-.966-2.072-2.071v-.967c0-1.105.967-2.072 2.072-2.072h28.728c1.105 0 2.071.967 2.071 2.072v.967zM435.654 362.302h-25.414v69.471h25.414v-69.471zM427.367 362.302h-17.127v8.701h17.127v-8.701zM435.654 362.302h-8.287v8.701h8.287v-8.701zM435.652 371.003h-17.127v8.702h17.127v-8.702zM418.527 371.003h-8.287v8.702h8.287v-8.702zM427.367 379.705h-17.127v8.701h17.127v-8.701zM435.654 379.705h-8.287v8.701h8.287v-8.701zM435.652 388.406h-17.127v8.701h17.127v-8.701zM418.527 388.406h-8.287v8.701h8.287v-8.701zM427.367 397.107h-17.127v8.701h17.127v-8.701zM435.654 397.107h-8.287v8.701h8.287v-8.701zM435.652 405.808h-17.127v8.701h17.127v-8.701zM418.527 405.808h-8.287v8.701h8.287v-8.701zM427.367 414.509h-17.127v8.701h17.127v-8.701zM435.654 414.509h-8.287v8.701h8.287v-8.701zM435.652 423.21h-17.127v8.701h17.127v-8.701zM418.527 423.21h-8.287v8.701h8.287v-8.701zM603.601 282.059c0 1.105-.967 2.072-2.072 2.072h-18.783c-1.105 0-2.072-.967-2.072-2.072s.967-2.072 2.072-2.072h18.783c1.105-.138 2.072.829 2.072 2.072zM599.596 284.131h-14.917l-4.005 72.923h22.927l-4.005-72.923zM608.573 360.231c0 1.105-.967 2.071-2.072 2.071h-28.728c-1.105 0-2.072-.966-2.072-2.071v-.967c0-1.105.967-2.072 2.072-2.072h28.728c1.105 0 2.072.967 2.072 2.072v.967zM604.845 362.302h-25.413v69.471h25.413v-69.471zM596.558 362.302h-17.126v8.701h17.126v-8.701zM604.846 362.302h-8.287v8.701h8.287v-8.701zM604.845 371.003h-17.126v8.702h17.126v-8.702zM587.719 371.003h-8.287v8.702h8.287v-8.702zM596.558 379.705h-17.126v8.701h17.126v-8.701zM604.846 379.705h-8.287v8.701h8.287v-8.701zM604.845 388.406h-17.126v8.701h17.126v-8.701zM587.719 388.406h-8.287v8.701h8.287v-8.701zM596.558 397.107h-17.126v8.701h17.126v-8.701zM604.846 397.107h-8.287v8.701h8.287v-8.701zM604.845 405.808h-17.126v8.701h17.126v-8.701zM587.719 405.808h-8.287v8.701h8.287v-8.701zM596.558 414.509h-17.126v8.701h17.126v-8.701zM604.846 414.509h-8.287v8.701h8.287v-8.701zM604.845 423.21h-17.126v8.701h17.126v-8.701zM587.719 423.21h-8.287v8.701h8.287v-8.701zM567.415 290.622h-3.591v115.186h3.591v-115.186zM430.818 290.622h136.597l15.331-6.491h-151.928M415.488 284.131h-100.134l.414 6.491h99.444M305.961 267.143v12.706M594.072 267.143v12.706" stroke="#87A731" stroke-miterlimit="10"/><path d="M410.237 405.808h-89.637v11.601h89.637v-11.601zM321.293 413.128h88.947" stroke="#87A731" stroke-miterlimit="10"/><path d="M579.431 405.808h-143.779v26.103h143.779v-26.103zM410.237 417.409h-89.637v11.602h89.637v-11.602zM321.293 424.729h88.947" stroke="#87A731" stroke-miterlimit="10"/><path d="M410.237 428.873h-89.637v11.601h89.637v-11.601zM321.293 436.331h88.947" stroke="#87A731" stroke-miterlimit="10"/><path d="M387.589 304.986h-44.335v91.844h44.335v-91.844zM381.374 310.648h-31.767v80.658h31.767v-80.658zM368.113 310.648h-5.386v80.658h5.386v-80.658zM376.537 359.816c0 1.105-.829 1.934-1.933 1.934-1.105 0-1.934-.829-1.934-1.934 0-1.104.829-1.933 1.934-1.933 1.104 0 1.933.829 1.933 1.933zM381.096 348.491h-13.121v4.834h13.121v-4.834zM362.728 348.491h-13.121v4.834h13.121v-4.834zM320.6 371.003h22.651M387.59 371.003h22.651" stroke="#87A731" stroke-miterlimit="10"/><path d="M31.799 290.622h-5.248v123.887h5.248v-123.887zM295.189 371.003h-263.388v43.506h263.388v-43.506zM43.539 371.003v43.506M56.938 371.003v43.506M70.197 371.003v43.506M83.592 371.003v43.506M96.852 371.003v43.506M110.25 371.003v43.506M123.508 371.003v43.506M136.906 371.003v43.506M150.164 371.003v43.506M163.562 371.003v43.506M176.822 371.003v43.506M190.219 371.003v43.506M203.477 371.003v43.506M216.877 371.003v43.506M230.135 371.003v43.506M243.531 371.003v43.506M256.791 371.003v43.506M270.189 371.003v43.506M283.447 371.003v43.506M443.387 405.808v25.965M456.232 405.808v25.965M469.215 405.808v25.965M482.059 405.808v25.965M494.904 405.808v25.965M507.75 405.808v25.965M520.732 405.808v25.965M533.576 405.808v25.965M546.422 405.808v25.965M559.266 405.808v25.965M572.25 405.808v25.965" stroke="#87A731" stroke-miterlimit="10"/><path d="M442.971 114.39c15.485 0 28.038-12.552 28.038-28.037 0-15.484-12.553-28.037-28.038-28.037s-28.037 12.553-28.037 28.037c0 15.484 12.552 28.037 28.037 28.037zM442.972 107.761c11.824 0 21.409-9.584 21.409-21.407s-9.585-21.407-21.409-21.407c-11.823 0-21.408 9.585-21.408 21.407 0 11.823 9.585 21.407 21.408 21.407zM439.52 107.485c1.104.138 2.348.276 3.591.276 1.243 0 2.348-.138 3.591-.276v-42.124c-1.105-.138-2.348-.276-3.591-.276-1.243 0-2.348.138-3.591.276v42.124zM421.701 86.353v1.381h17.817v-2.9h-17.679c-.138.552-.138 1.105-.138 1.519zM464.378 86.353v1.381h-17.679v-2.9h17.679v1.519zM343.805 130.826h199.164M331.1 143.394v16.021M349.607 130.826v28.589M367.975 130.826v28.589M386.482 130.826v28.589M404.99 130.826v28.589M423.496 130.826v28.589M442.004 130.826v28.589M460.377 130.826v28.589M478.883 130.826v28.589M497.391 130.826v28.589M515.898 130.826v28.589M534.406 130.826v28.589M552.773 140.632v18.783M349.607 125.163h187.701" stroke="#87A731" stroke-miterlimit="10"/><path d="M623.628 261.204c0 1.105-.828 1.934-1.933 1.934h-338.662c-1.105 0-1.933-.829-1.933-1.934s.828-1.934 1.933-1.934h338.524c1.104 0 2.071.829 2.071 1.934zM305.961 271.562h-303.027c-1.105 0-1.934.829-1.934 1.934s.829 1.934 1.934 1.934h303.027v-3.868zM306.099 275.43h-297.779v4.419h297.779v-4.419zM300.023 290.622h-281.757v-10.773M8.32 271.562l65.605-72.371h69.058" stroke="#87A731" stroke-miterlimit="10"/><path d="M234.416 189.524h-63.119v62.288h63.119v-62.288zM230.274 193.667h-54.833v54.002h54.833v-54.002zM205.551 193.667h-5.387v54.002h5.387v-54.002zM200.162 219.494h-24.723v2.762h24.723v-2.762zM230.272 219.494h-24.723v2.762h24.723v-2.762zM187.32 193.667v25.827M218.395 193.667v25.827" stroke="#87A731" stroke-miterlimit="10"/><path d="M171.298 192.562h-13.398v56.488h13.398v-56.488zM171.435 195.186h-10.912v49.444h10.912v-49.444zM171.435 217.837h-10.912v3.729h10.912v-3.729zM247.815 192.562h-13.397v56.488h13.397v-56.488zM245.329 195.186h-10.911v49.444h10.911v-49.444zM245.329 217.837h-10.911v3.729h10.911v-3.729zM148.37 180.27h-5.11v71.542h5.11v-71.542zM262.593 180.27h-5.111v71.542h5.111v-71.542zM268.946 174.469h-132.04v5.801h132.04v-5.801zM238.423 136.35h-71.268l-36.325 33.147v4.972h144.194v-4.972l-36.601-33.147zM262.592 199.191h48.202M130.83 169.497h144.194M85.803 199.191l46.269-52.482h23.756M249.885 146.709h47.788" stroke="#87A731" stroke-miterlimit="10"/><path d="M612.855 432.049h-202.617v8.425h202.617c1.243 0 2.348-.967 2.348-2.21v-4.005c0-1.243-1.105-2.21-2.348-2.21zM285.795 432.049h34.667v8.425h-34.667c-1.243 0-2.348-.967-2.348-2.21v-4.005c0-1.243 1.105-2.21 2.348-2.21zM295.188 414.509h-275.68c-1.243 0-2.348.967-2.348 2.348v4.143c0 1.243.967 2.348 2.348 2.348h275.68v-8.839z" stroke="#87A731" stroke-miterlimit="10"/></svg>