<?xml version="1.0" standalone="no"?>
<!DOCTYPE svg PUBLIC "-//W3C//DTD SVG 20010904//EN"
 "http://www.w3.org/TR/2001/REC-SVG-20010904/DTD/svg10.dtd">
<svg version="1.0" xmlns="http://www.w3.org/2000/svg"
 width="736.000000pt" height="736.000000pt" viewBox="0 0 736.000000 736.000000"
 preserveAspectRatio="xMidYMid meet">
<metadata>
Created by potrace 1.11, written by Peter Selinger 2001-2013
</metadata>
<g transform="translate(0.000000,736.000000) scale(0.100000,-0.100000)"
fill="#000000" stroke="none">
<path d="M3545 7346 c-59 -14 -148 -54 -202 -90 -34 -24 -153 -139 -878 -851
-1355 -1332 -1417 -1394 -1443 -1432 -39 -55 -60 -140 -57 -223 3 -91 6 -103
40 -171 51 -100 172 -193 280 -215 22 -4 207 -8 410 -8 l370 -1 5 -555 c5
-582 5 -578 49 -621 61 -58 165 -56 226 5 44 43 44 51 44 721 -1 662 -1 663
-43 712 -42 50 -59 51 -548 51 -405 0 -459 2 -480 16 -29 21 -48 73 -37 104 5
13 53 66 107 119 53 52 273 267 487 478 215 211 454 445 532 521 123 121 635
623 975 956 60 60 124 119 142 133 79 60 204 65 284 10 20 -14 208 -194 420
-402 211 -208 473 -466 583 -573 1279 -1257 1249 -1227 1250 -1247 3 -41 -4
-59 -30 -86 l-28 -29 -474 -1 c-473 -2 -474 -2 -505 -24 -72 -52 -69 -23 -71
-573 l-1 -495 27 -40 c66 -98 192 -99 265 -1 20 26 21 43 26 424 l5 397 380 1
c209 1 391 5 405 8 14 4 30 8 35 10 44 11 117 57 161 100 53 54 82 101 108
177 20 57 16 192 -7 238 -9 19 -17 38 -17 43 0 30 -62 93 -1195 1213 -291 288
-658 651 -814 805 -285 282 -326 318 -414 358 -103 48 -261 64 -372 38z"/>
<path d="M3570 6297 c0 -8 9 -49 20 -93 40 -154 45 -251 19 -354 -19 -72 -84
-210 -100 -210 -5 0 -9 -5 -9 -11 0 -13 -60 -77 -229 -243 -219 -216 -256
-255 -323 -346 -72 -98 -127 -208 -143 -287 -3 -16 -9 -41 -13 -58 -14 -61 -6
-307 12 -365 9 -30 18 -63 20 -72 5 -18 68 -150 76 -158 3 -3 23 -32 45 -65
81 -120 317 -325 375 -325 40 0 211 203 302 357 62 106 135 271 153 350 3 10
9 36 15 58 5 22 13 63 16 90 4 28 8 57 10 65 1 8 3 55 3 104 1 122 6 113 34
-64 35 -214 25 -504 -23 -680 -7 -25 -13 -49 -15 -55 -1 -5 -7 -23 -13 -38 -7
-16 -12 -30 -12 -33 0 -10 -46 -102 -72 -145 -15 -25 -28 -56 -28 -67 0 -35
40 -54 96 -47 27 4 60 8 74 10 114 12 328 90 431 156 184 119 307 286 360 485
67 256 -1 566 -220 999 -42 83 -79 152 -83 153 -5 2 -8 8 -8 13 0 5 -29 57
-65 115 -36 59 -65 110 -65 114 0 5 -3 10 -7 12 -11 5 -53 66 -53 77 0 5 -4
11 -8 13 -4 2 -28 32 -52 68 -25 35 -50 71 -57 80 -153 196 -278 329 -357 379
-52 32 -106 41 -106 18z"/>
<path d="M4606 3292 c-2 -2 -10 -5 -18 -6 -18 -3 -149 -46 -173 -56 -16 -7
-143 -50 -165 -55 -3 -1 -12 -5 -20 -8 -8 -4 -145 -52 -305 -106 -159 -55
-409 -140 -555 -191 -146 -50 -272 -93 -280 -95 -37 -9 -270 -95 -298 -109
-40 -21 -88 -80 -105 -130 -37 -113 21 -248 131 -302 66 -33 141 -27 282 21
69 23 132 45 140 48 8 4 92 32 185 62 94 31 179 61 190 66 11 5 61 22 110 38
89 29 316 107 345 118 8 3 20 7 25 8 6 2 71 24 145 50 74 25 218 75 320 109
102 35 196 69 209 77 167 97 162 341 -9 430 -39 21 -144 42 -154 31z"/>
<path d="M4599 2542 c-8 -2 -21 -6 -29 -9 -8 -3 -20 -7 -25 -8 -6 -2 -70 -24
-143 -50 -73 -26 -138 -48 -145 -49 -7 -1 -16 -4 -22 -7 -5 -4 -28 -12 -50
-18 -22 -7 -49 -16 -60 -21 -21 -9 -78 -29 -515 -180 -146 -51 -269 -93 -275
-94 -5 -2 -17 -6 -25 -9 -8 -3 -114 -40 -235 -82 -121 -42 -234 -81 -251 -87
-61 -22 -121 -91 -142 -164 -28 -96 26 -225 113 -272 91 -49 143 -48 302 6 65
23 231 79 368 127 138 47 349 119 470 160 203 69 487 166 728 250 110 38 156
68 193 127 30 47 35 66 36 133 1 82 -59 183 -131 220 -42 21 -130 36 -162 27z"/>
<path d="M4620 1752 c-14 -2 -54 -13 -90 -24 -36 -12 -67 -21 -70 -21 -3 1
-13 -3 -23 -9 -11 -5 -161 -58 -335 -118 -175 -59 -324 -110 -332 -113 -20 -8
-154 -51 -160 -52 -3 0 -9 -3 -15 -6 -9 -6 -106 -39 -130 -45 -5 -2 -109 -37
-230 -79 -121 -41 -269 -92 -329 -112 -93 -31 -117 -44 -157 -82 -155 -151
-45 -419 170 -418 47 0 192 39 271 74 8 3 20 7 25 9 6 1 71 23 145 48 74 26
180 62 235 81 55 18 246 84 425 145 179 61 409 140 512 175 226 77 246 86 296
136 97 99 88 263 -20 354 -48 40 -129 65 -188 57z"/>
<path d="M4130 823 c-8 -3 -94 -35 -190 -70 -96 -36 -188 -71 -205 -78 -25
-10 -133 -51 -280 -105 -16 -6 -31 -11 -33 -11 -1 1 -25 -10 -53 -24 -36 -19
-54 -36 -64 -59 -17 -41 -14 -58 26 -155 50 -120 66 -148 119 -200 86 -85 183
-122 308 -117 88 3 148 22 230 71 53 33 172 140 172 156 0 4 6 14 13 21 13 15
62 112 71 143 41 147 20 351 -44 415 -20 20 -41 24 -70 13z"/>
</g>
</svg>
